#!OML:ASF F:\VICON\USERDATA\INSTALL\rory3\rory3.ASF
:FULLY-SPECIFIED
:DEGREES
517
root 1.75012 17.968 1.25969 4.925 32.0383 -12.4838
lowerback 9.85968 1.57581 0.313915
upperback -2.08573 1.6963 -6.69259
thorax -7.56265 0.663368 -7.63705
lowerneck -22.7836 -16.1081 -14.634
upperneck 4.95055 -19.8433 17.822
head 8.48872 -8.38955 5.06177
rclavicle 8.42847e-014 -6.36111e-015
rhumerus 66.9595 -47.7554 -50.3427
rradius 37.1143
rwrist 33.5995
rhand -60.9052 -5.48541
rfingers 7.12502
rthumb -33.0132 -32.4828
lclavicle 8.42847e-014 -6.36111e-015
lhumerus -39.461 9.76089 55.3931
lradius 45.2729
lwrist -0.982719
lhand -17.5958 25.3145
lfingers 7.12502
lthumb 8.66039 55.1169
rfemur -6.25775 -11.1536 25.4118
rtibia 15.5925
rfoot -18.5532 -19.6578
rtoes -6.78023
lfemur -25.5319 -8.99547 -0.376085
ltibia 29.812
lfoot -15.4997 -10.2008
ltoes -21.1627
518
root 1.74135 17.9644 1.26058 4.87348 31.8414 -12.4327
lowerback 9.84335 1.56832 0.405324
upperback -2.02806 1.70318 -6.65673
thorax -7.48831 0.666291 -7.64704
lowerneck -22.7764 -16.1357 -14.6353
upperneck 4.99532 -19.9087 17.9162
head 8.52658 -8.41182 5.07751
rclavicle -7.79236e-014 7.95139e-014
rhumerus 66.1599 -47.4955 -49.5334
rradius 37.8485
rwrist 32.6276
rhand -60.7141 -5.32146
rfingers 7.12502
rthumb -32.8314 -32.3571
lclavicle -7.79236e-014 7.95139e-014
lhumerus -39.4225 10.043 55.2507
lradius 45.2714
lwrist -1.1866
lhand -17.4883 23.9371
lfingers 7.12502
lthumb 8.7641 53.7352
rfemur -6.16912 -10.7954 25.413
rtibia 15.5893
rfoot -18.8013 -19.8545
rtoes -5.62048
lfemur -25.3916 -8.89307 -0.435723
ltibia 29.8191
lfoot -15.5247 -10.1049
ltoes -21.5481
519
root 1.72978 17.9619 1.26548 4.78327 31.57 -12.3191
lowerback 9.86629 1.5876 0.348123
upperback -1.96458 1.72596 -6.62188
thorax -7.43233 0.683351 -7.5763
lowerneck -22.7768 -16.1149 -14.542
upperneck 5.12008 -19.9274 17.9019
head 8.56106 -8.41687 5.05403
rclavicle 7.95139e-015 5.40694e-014
rhumerus 64.3212 -46.8919 -47.7027
rradius 38.8581
rwrist 32.0396
rhand -60.4649 -4.84712
rfingers 7.12502
rthumb -32.5944 -31.932
lclavicle 7.95139e-015 5.40694e-014
lhumerus -39.4352 10.0724 55.1991
lradius 45.3623
lwrist -1.06001
lhand -17.529 24.034
lfingers 7.12502
lthumb 8.72486 53.8336
rfemur -6.10514 -10.4241 25.3567
rtibia 15.6909
rfoot -19.0847 -20.0926
rtoes -5.36704
lfemur -25.1387 -8.81307 -0.544954
ltibia 29.8739
lfoot -15.5989 -9.97005
ltoes -21.6376
520
root 1.71699 17.9563 1.26886 4.85852 31.1841 -11.9151
lowerback 9.8224 1.5988 0.00769186
upperback -1.91571 1.70091 -6.64235
thorax -7.36665 0.688575 -7.39198
lowerneck -22.6815 -16.0374 -14.5637
upperneck 5.18181 -19.8608 18.0112
head 8.57555 -8.38259 5.11064
rclavicle 1.28812e-013 -4.45278e-014
rhumerus 62.007 -45.8692 -45.4074
rradius 39.8983
rwrist 32.23
rhand -60.3942 -4.22075
rfingers 7.12502
rthumb -32.527 -31.3196
lclavicle 1.28812e-013 -4.45278e-014
lhumerus -39.5182 10.2343 55.0886
lradius 45.381
lwrist -0.790252
lhand -17.6002 25.5385
lfingers 7.12502
lthumb 8.65615 55.341
rfemur -6.09071 -10.132 25.0601
rtibia 15.8805
rfoot -19.0967 -20.281
rtoes -4.83494
lfemur -24.8299 -8.75114 -0.922675
ltibia 29.8776
lfoot -15.6257 -9.72427
ltoes -21.6744
521
root 1.70451 17.9416 1.26542 5.01497 30.8312 -11.3782
lowerback 9.76193 1.61043 -0.383878
upperback -1.8757 1.66866 -6.70532
thorax -7.30231 0.691255 -7.22383
lowerneck -22.4469 -15.951 -14.6996
upperneck 5.16213 -19.7819 18.2599
head 8.57 -8.34495 5.23844
rclavicle 1.19271e-014 -2.8625e-014
rhumerus 59.3343 -44.5945 -42.6982
rradius 41.0232
rwrist 32.8779
rhand -60.3417 -3.6248
rfingers 7.12502
rthumb -32.4771 -30.7339
lclavicle 1.19271e-014 -2.8625e-014
lhumerus -39.605 10.4018 55.0277
lradius 45.4045
lwrist -0.571251
lhand -17.7252 26.3303
lfingers 7.12502
lthumb 8.53552 56.1378
rfemur -6.06782 -10.3388 24.7135
rtibia 16.0993
rfoot -18.6632 -20.3412
rtoes -5.17966
lfemur -24.6223 -8.74094 -1.43056
ltibia 29.9433
lfoot -15.6124 -9.44485
ltoes -21.5995
522
root 1.69273 17.9414 1.2648 4.94573 30.5271 -11.0221
lowerback 9.76549 1.60973 -0.620222
upperback -1.74035 1.6469 -6.68803
thorax -7.16825 0.696273 -7.05718
lowerneck -22.2757 -15.8725 -14.698
upperneck 5.10975 -19.6996 18.3071
head 8.51998 -8.3166 5.27975
rclavicle 3.89618e-014 0
rhumerus 56.366 -43.0607 -39.608
rradius 42.5023
rwrist 33.4809
rhand -60.3179 -2.46866
rfingers 7.12502
rthumb -32.4545 -29.5824
lclavicle 3.89618e-014 0
lhumerus -39.6208 10.5777 55.0964
lradius 45.3909
lwrist -0.441968
lhand -17.9765 26.1132
lfingers 7.12502
lthumb 8.29304 55.9304
rfemur -6.02852 -10.1055 24.3909
rtibia 16.3707
rfoot -18.8956 -20.6048
rtoes -4.6817
lfemur -24.2642 -8.82698 -1.78108
ltibia 29.9948
lfoot -15.6225 -9.15568
ltoes -21.6892
523
root 1.68074 17.9254 1.26442 4.82383 30.0678 -10.7921
lowerback 9.68452 1.64939 -0.776821
upperback -1.57212 1.69702 -6.63279
thorax -6.9411 0.735755 -6.89943
lowerneck -22.3706 -15.8283 -14.6077
upperneck 5.2162 -19.6439 18.1757
head 8.53458 -8.29132 5.23121
rclavicle 2.54444e-014 4.45278e-014
rhumerus 53.0824 -41.2128 -36.1695
rradius 44.306
rwrist 34.1006
rhand -60.4909 -1.20709
rfingers 7.12502
rthumb -32.6191 -28.2869
lclavicle 2.54444e-014 4.45278e-014
lhumerus -39.5465 10.814 55.1225
lradius 45.3182
lwrist -0.386498
lhand -18.1088 26.3077
lfingers 7.12502
lthumb 8.16529 56.13
rfemur -5.88368 -10.2472 24.2635
rtibia 16.6402
rfoot -18.9567 -20.3846
rtoes -5.50365
lfemur -23.8836 -8.82596 -2.01344
ltibia 30.0775
lfoot -15.6919 -8.75469
ltoes -21.9005
